<svg width="18" height="17" viewBox="0 0 18 17" fill="none" xmlns="http://www.w3.org/2000/svg">
<path d="M1 1H2.36585L2.95122 3.34146L1 1ZM2.95122 3.34146L4.90244 11.1463H15.0488L17 3.34146H2.95122Z" stroke="#333333" stroke-width="1.75" stroke-linecap="round" stroke-linejoin="round"/>
<path d="M4.90242 16.0487C5.549 16.0487 6.07315 15.5246 6.07315 14.878C6.07315 14.2314 5.549 13.7073 4.90242 13.7073C4.25584 13.7073 3.73169 14.2314 3.73169 14.878C3.73169 15.5246 4.25584 16.0487 4.90242 16.0487Z" stroke="#333333" stroke-width="1.75" stroke-linecap="round" stroke-linejoin="round"/>
<path d="M15.0488 16.0487C15.6954 16.0487 16.2195 15.5246 16.2195 14.878C16.2195 14.2314 15.6954 13.7073 15.0488 13.7073C14.4022 13.7073 13.8781 14.2314 13.8781 14.878C13.8781 15.5246 14.4022 16.0487 15.0488 16.0487Z" stroke="#333333" stroke-width="1.75" stroke-linecap="round" stroke-linejoin="round"/>
</svg>
