<svg id="logo" xmlns="http://www.w3.org/2000/svg" width="300" height="59.246" viewBox="0 0 300 59.246">
  <g id="Group_23" data-name="Group 23" transform="translate(0 0)">
    <g id="Group_21" data-name="Group 21">
      <path id="Path_65" data-name="Path 65" d="M407.692,431.244v32.962a2.707,2.707,0,0,1-2.707,2.707H398.3a2.706,2.706,0,0,1-2.705-2.707v-31.29a4.378,4.378,0,0,1,4.379-4.379h5.017A2.707,2.707,0,0,1,407.692,431.244Z" transform="translate(-395.59 -428.537)" fill="#ef4236"/>
      <path id="Path_66" data-name="Path 66" d="M463.111,428.537h-6.69a2.706,2.706,0,0,0-2.706,2.707v32.962a2.706,2.706,0,0,0,2.706,2.707h6.69a2.707,2.707,0,0,0,2.707-2.707V431.244A2.707,2.707,0,0,0,463.111,428.537Z" transform="translate(-438.267 -428.537)" fill="#ef4236"/>
      <path id="Path_67" data-name="Path 67" d="M521.236,428.8h-6.69a2.705,2.705,0,0,0-2.705,2.707v12.1a2.7,2.7,0,0,0,2.705,2.705h6.69a2.706,2.706,0,0,0,2.706-2.705v-12.1A2.706,2.706,0,0,0,521.236,428.8Z" transform="translate(-480.945 -428.73)" fill="#ef4236"/>
      <path id="Path_68" data-name="Path 68" d="M577.684,428.8h-5.017a2.707,2.707,0,0,0-2.707,2.707v12.1a2.706,2.706,0,0,0,2.707,2.705h6.69a2.705,2.705,0,0,0,2.706-2.705v-10.43A4.378,4.378,0,0,0,577.684,428.8Z" transform="translate(-523.619 -428.73)" fill="#ef4236"/>
      <path id="Path_69" data-name="Path 69" d="M454.034,509.734v31.292a4.378,4.378,0,0,1-4.379,4.379H399.968a4.378,4.378,0,0,1-4.379-4.379V530.593a2.7,2.7,0,0,1,2.705-2.706h42.6a1.033,1.033,0,0,0,1.033-1.033V525.57a1.033,1.033,0,0,0-.918-1.027c-.038,0-.076-.006-.115-.006s-.078,0-.115.006H429.191a2.707,2.707,0,0,1-2.707-2.707v-12.1a2.707,2.707,0,0,1,2.707-2.707h22.138A2.706,2.706,0,0,1,454.034,509.734Z" transform="translate(-395.59 -486.167)" fill="#072c50"/>
    </g>
    <g id="Group_22" data-name="Group 22" transform="translate(69.616 21.04)">
      <path id="Path_70" data-name="Path 70" d="M686.306,534.1a10.55,10.55,0,0,1-1.947,6.368,12.06,12.06,0,0,1-5.259,4.06,18.825,18.825,0,0,1-7.308,1.38,26.654,26.654,0,0,1-8.121-1.109,14.877,14.877,0,0,1-6.135-3.841l5.929-5.929a8.149,8.149,0,0,0,3.66,2.024,17.5,17.5,0,0,0,4.718.632q5.389,0,5.389-3.377a3.064,3.064,0,0,0-.748-2.217,4.145,4.145,0,0,0-2.475-1.005l-4.537-.644q-5-.7-7.554-3.326-2.579-2.654-2.578-7.553A11.428,11.428,0,0,1,661,513.441a11.268,11.268,0,0,1,4.77-4.215,16.382,16.382,0,0,1,7.283-1.521,22.285,22.285,0,0,1,7.256,1.07,13.913,13.913,0,0,1,5.427,3.416l-5.8,5.8a6.471,6.471,0,0,0-3.12-1.83,18.113,18.113,0,0,0-4.021-.387,4.853,4.853,0,0,0-3.377,1.057,3.2,3.2,0,0,0-1.16,2.423,2.4,2.4,0,0,0,.748,1.753,4.369,4.369,0,0,0,2.579,1.109l4.537.619q4.949.722,7.4,3.12a8.248,8.248,0,0,1,2.127,3.441A15.648,15.648,0,0,1,686.306,534.1Z" transform="translate(-657.536 -507.705)" fill="#072c50"/>
      <path id="Path_71" data-name="Path 71" d="M807.027,546.456H797.8v-14.9h-9.822v14.9h-9.229V508.869h9.229v14.462H797.8V508.869h9.229Z" transform="translate(-746.533 -508.56)" fill="#072c50"/>
      <path id="Path_72" data-name="Path 72" d="M927.971,526.808v1.263q0,3.146-.219,5.414a16.333,16.333,0,0,1-1.043,4.383,11.027,11.027,0,0,1-2.525,3.815,14.528,14.528,0,0,1-4.6,3.158,15,15,0,0,1-5.91,1.07,16.518,16.518,0,0,1-4.135-.477,12.944,12.944,0,0,1-3.4-1.4,14.652,14.652,0,0,1-2.95-2.346,11.143,11.143,0,0,1-3.142-5.62,39.474,39.474,0,0,1-.669-7.992v-2.527a39.679,39.679,0,0,1,.669-8,11.145,11.145,0,0,1,3.142-5.633,14.281,14.281,0,0,1,4.624-3.171,17.174,17.174,0,0,1,11.758.013,14.318,14.318,0,0,1,4.61,3.158,11,11,0,0,1,2.525,3.828,16.508,16.508,0,0,1,1.043,4.4q.219,2.269.219,5.414Zm-9.229,0a43.377,43.377,0,0,0-.322-6.548,6.189,6.189,0,0,0-1.044-2.681,3.757,3.757,0,0,0-1.509-1.186,5.139,5.139,0,0,0-2.2-.464,4.939,4.939,0,0,0-2.139.451,4.261,4.261,0,0,0-1.548,1.2,4.961,4.961,0,0,0-.76,1.457,11.957,11.957,0,0,0-.451,2.655q-.154,1.792-.155,5.117,0,3.3.155,5.091a11.718,11.718,0,0,0,.451,2.643,4.994,4.994,0,0,0,.76,1.444,4.873,4.873,0,0,0,7.4,0,6.783,6.783,0,0,0,1.044-2.694A41.96,41.96,0,0,0,918.741,526.808Z" transform="translate(-835.107 -507.705)" fill="#072c50"/>
      <path id="Path_73" data-name="Path 73" d="M1048.888,520.96a12.161,12.161,0,0,1-1.509,5.929,11.579,11.579,0,0,1-4.395,4.46,13.429,13.429,0,0,1-6.935,1.7H1030.4v13.405h-9.229V508.869h14.888a13.482,13.482,0,0,1,6.927,1.689A11.483,11.483,0,0,1,1047.38,515,12.223,12.223,0,0,1,1048.888,520.96Zm-9.229.013a3.843,3.843,0,0,0-.478-1.876,3.589,3.589,0,0,0-1.4-1.4,4.207,4.207,0,0,0-2.133-.527H1030.4v7.579h5.248a4.207,4.207,0,0,0,2.133-.526,3.617,3.617,0,0,0,1.4-1.388A3.771,3.771,0,0,0,1039.658,520.973Z" transform="translate(-924.532 -508.56)" fill="#072c50"/>
      <path id="Path_74" data-name="Path 74" d="M1159.826,526.808v1.263q0,3.146-.219,5.414a16.282,16.282,0,0,1-1.043,4.383,11.038,11.038,0,0,1-2.524,3.815,14.534,14.534,0,0,1-4.6,3.158,15,15,0,0,1-5.911,1.07,16.5,16.5,0,0,1-4.134-.477,12.942,12.942,0,0,1-3.4-1.4,14.612,14.612,0,0,1-2.948-2.346,11.137,11.137,0,0,1-3.142-5.62,39.391,39.391,0,0,1-.669-7.992v-2.527a39.6,39.6,0,0,1,.669-8,11.138,11.138,0,0,1,3.142-5.633,14.28,14.28,0,0,1,4.623-3.171,17.174,17.174,0,0,1,11.758.013,14.319,14.319,0,0,1,4.611,3.158,11.009,11.009,0,0,1,2.524,3.828,16.456,16.456,0,0,1,1.043,4.4q.219,2.269.219,5.414Zm-9.229,0a43.26,43.26,0,0,0-.322-6.548,6.179,6.179,0,0,0-1.044-2.681,3.756,3.756,0,0,0-1.508-1.186,5.141,5.141,0,0,0-2.205-.464,4.947,4.947,0,0,0-2.139.451,4.261,4.261,0,0,0-1.547,1.2,4.953,4.953,0,0,0-.761,1.457,11.991,11.991,0,0,0-.45,2.655q-.156,1.792-.155,5.117,0,3.3.155,5.091a11.751,11.751,0,0,0,.45,2.643,4.987,4.987,0,0,0,.761,1.444,4.872,4.872,0,0,0,7.4,0,6.771,6.771,0,0,0,1.044-2.694A41.849,41.849,0,0,0,1150.6,526.808Z" transform="translate(-1005.344 -507.705)" fill="#ef4236"/>
      <path id="Path_75" data-name="Path 75" d="M1272.331,517.093h-9.255v29.363h-9.23V517.093h-9.254v-8.224h27.738Z" transform="translate(-1088.574 -508.56)" fill="#ef4236"/>
      <path id="Path_76" data-name="Path 76" d="M1387.585,546.456h-9.229v-14.9h-9.822v14.9H1359.3V508.869h9.229v14.462h9.822V508.869h9.229Z" transform="translate(-1172.799 -508.56)" fill="#ef4236"/>
    </g>
  </g>
  <g id="Group_24" data-name="Group 24" transform="translate(287.149 21.349)">
    <path id="Path_77" data-name="Path 77" d="M1476.449,512.069v-3.2h3.2v3.2Z" transform="translate(-1476.345 -508.869)" fill="#ef4236"/>
    <path id="Path_78" data-name="Path 78" d="M1480.176,533.763a5.684,5.684,0,0,1-1.8-.594,4.22,4.22,0,0,1-1.3-1.065,4.358,4.358,0,0,1-.763-1.434,5.613,5.613,0,0,1-.252-1.7,4.727,4.727,0,0,1,1.422-3.509,3.745,3.745,0,0,1,1.89-1.057,13.276,13.276,0,0,1,2.688-.225h.85a13.345,13.345,0,0,1,2.692.225,3.747,3.747,0,0,1,1.895,1.057,4.785,4.785,0,0,1,1.062,1.559,5.067,5.067,0,0,1,.351,1.95,5.586,5.586,0,0,1-.256,1.732,4.333,4.333,0,0,1-.763,1.412,4.279,4.279,0,0,1-1.292,1.053,5.594,5.594,0,0,1-1.807.594v-3.156a2.14,2.14,0,0,0,.984-.533,1.477,1.477,0,0,0,.368-1.088,1.669,1.669,0,0,0-.147-.715,1.4,1.4,0,0,0-.381-.507,1.671,1.671,0,0,0-.5-.264,4.119,4.119,0,0,0-.884-.156q-.594-.057-1.747-.056a13.889,13.889,0,0,0-2.155.113,2.366,2.366,0,0,0-.967.364,1.451,1.451,0,0,0-.538,1.223,1.479,1.479,0,0,0,.369,1.08,2.1,2.1,0,0,0,.984.542Z" transform="translate(-1476.057 -520.112)" fill="#ef4236"/>
    <path id="Path_79" data-name="Path 79" d="M1482.482,574.091h-.425q-1.058,0-1.821-.074a5.487,5.487,0,0,1-1.474-.351,3.717,3.717,0,0,1-1.283-.849,4.89,4.89,0,0,1-1.062-1.547,5.048,5.048,0,0,1-.36-1.988,5.565,5.565,0,0,1,.161-1.391,4.359,4.359,0,0,1,.473-1.144,4.912,4.912,0,0,1,.789-.992,3.745,3.745,0,0,1,1.89-1.057,13.251,13.251,0,0,1,2.688-.225h.85a13.32,13.32,0,0,1,2.692.225,3.747,3.747,0,0,1,1.895,1.057,4.8,4.8,0,0,1,1.067,1.555,5.778,5.778,0,0,1,0,3.955,4.815,4.815,0,0,1-1.062,1.551,3.7,3.7,0,0,1-1.288.849,5.543,5.543,0,0,1-1.479.351q-.763.074-1.821.074Zm0-3.1a14.556,14.556,0,0,0,2.2-.109,2.077,2.077,0,0,0,.9-.351,1.265,1.265,0,0,0,.4-.507,1.73,1.73,0,0,0,.156-.742,1.661,1.661,0,0,0-.152-.72,1.437,1.437,0,0,0-.4-.52,1.664,1.664,0,0,0-.49-.256,4.022,4.022,0,0,0-.893-.152q-.6-.052-1.721-.052t-1.713.052a3.937,3.937,0,0,0-.889.152,1.674,1.674,0,0,0-.485.256,1.639,1.639,0,0,0,0,2.489,2.277,2.277,0,0,0,.906.351A14.088,14.088,0,0,0,1482.482,570.986Z" transform="translate(-1476.057 -549.696)" fill="#ef4236"/>
    <path id="Path_80" data-name="Path 80" d="M1476.449,617.742v-3.1h6.052l-3.122-1.795v-1.986l3.122-1.795h-6.052v-3.1h12.642v3.052l-5.575,2.835,5.575,2.844v3.052Z" transform="translate(-1476.345 -580.155)" fill="#ef4236"/>
  </g>
</svg>
