<svg width="24" height="24" viewBox="0 0 24 24" fill="none" xmlns="http://www.w3.org/2000/svg">
<path d="M24 0H0V24H24V0Z" fill="white" fill-opacity="0.01"/>
<path fill-rule="evenodd" clip-rule="evenodd" d="M12 20C16.4183 20 20 16.4183 20 12C20 7.58172 16.4183 4 12 4C7.58172 4 4 7.58172 4 12C4 16.4183 7.58172 20 12 20Z" stroke="#333333" stroke-width="1.5" stroke-linecap="round" stroke-linejoin="round"/>
<path d="M12 11C13.1046 11 14 10.1046 14 9C14 7.89544 13.1046 7 12 7C10.8954 7 10 7.89544 10 9C10 10.1046 10.8954 11 12 11Z" stroke="#333333" stroke-width="1.5" stroke-linejoin="round"/>
<path d="M6 17C6.14754 14.7662 8.00879 13 10.2832 13H13.7173C15.9888 13 17.8481 14.7616 18 16.9911" stroke="#333333" stroke-width="1.5" stroke-linecap="round" stroke-linejoin="round"/>
</svg>
