<svg width="17" height="17" viewBox="0 0 17 17" fill="none" xmlns="http://www.w3.org/2000/svg">
<path d="M0.666626 1.01914C0.666626 0.837261 0.738876 0.662834 0.867481 0.534229C0.996086 0.405624 1.17051 0.333374 1.35239 0.333374H1.8626C2.73123 0.333374 3.25241 0.917643 3.54957 1.46077C3.74798 1.82285 3.89154 2.24254 4.004 2.62291C4.03442 2.6205 4.06492 2.61928 4.09544 2.61925H15.523C16.2819 2.61925 16.8305 3.34524 16.622 4.07581L14.9506 9.93587C14.8007 10.4615 14.4837 10.924 14.0475 11.2533C13.6113 11.5826 13.0796 11.7608 12.5331 11.7609H7.0945C6.5436 11.7609 6.00794 11.58 5.56985 11.246C5.13176 10.912 4.81549 10.4433 4.66965 9.9121L3.97474 7.37752L2.82266 3.49337L2.82175 3.48605C2.67911 2.96762 2.54561 2.4821 2.34629 2.12001C2.15519 1.76799 2.00158 1.7049 1.86351 1.7049H1.35239C1.17051 1.7049 0.996086 1.63265 0.867481 1.50404C0.738876 1.37544 0.666626 1.20101 0.666626 1.01914ZM5.30512 7.0447L5.9918 9.5491C6.12895 10.0447 6.57972 10.3894 7.0945 10.3894H12.5331C12.7815 10.3894 13.0232 10.3084 13.2215 10.1588C13.4198 10.0092 13.5639 9.79897 13.6321 9.56007L15.2203 3.99077H4.40174L5.29232 6.99624L5.30512 7.0447Z" fill="#192434"/>
<path d="M8.43865 14.5058C8.43865 14.9908 8.24598 15.456 7.90303 15.7989C7.56009 16.1419 7.09495 16.3345 6.60995 16.3345C6.12495 16.3345 5.65981 16.1419 5.31686 15.7989C4.97392 15.456 4.78125 14.9908 4.78125 14.5058C4.78125 14.0208 4.97392 13.5557 5.31686 13.2127C5.65981 12.8698 6.12495 12.6771 6.60995 12.6771C7.09495 12.6771 7.56009 12.8698 7.90303 13.2127C8.24598 13.5557 8.43865 14.0208 8.43865 14.5058ZM7.06712 14.5058C7.06712 14.3846 7.01896 14.2683 6.93322 14.1826C6.84748 14.0968 6.7312 14.0486 6.60995 14.0486C6.4887 14.0486 6.37241 14.0968 6.28668 14.1826C6.20094 14.2683 6.15277 14.3846 6.15277 14.5058C6.15277 14.6271 6.20094 14.7434 6.28668 14.8291C6.37241 14.9148 6.4887 14.963 6.60995 14.963C6.7312 14.963 6.84748 14.9148 6.93322 14.8291C7.01896 14.7434 7.06712 14.6271 7.06712 14.5058Z" fill="#192434"/>
<path d="M14.839 14.5058C14.839 14.9908 14.6464 15.456 14.3034 15.7989C13.9605 16.1419 13.4953 16.3345 13.0103 16.3345C12.5253 16.3345 12.0602 16.1419 11.7173 15.7989C11.3743 15.456 11.1816 14.9908 11.1816 14.5058C11.1816 14.0208 11.3743 13.5557 11.7173 13.2127C12.0602 12.8698 12.5253 12.6771 13.0103 12.6771C13.4953 12.6771 13.9605 12.8698 14.3034 13.2127C14.6464 13.5557 14.839 14.0208 14.839 14.5058ZM13.4675 14.5058C13.4675 14.3846 13.4193 14.2683 13.3336 14.1826C13.2479 14.0968 13.1316 14.0486 13.0103 14.0486C12.8891 14.0486 12.7728 14.0968 12.6871 14.1826C12.6013 14.2683 12.5532 14.3846 12.5532 14.5058C12.5532 14.6271 12.6013 14.7434 12.6871 14.8291C12.7728 14.9148 12.8891 14.963 13.0103 14.963C13.1316 14.963 13.2479 14.9148 13.3336 14.8291C13.4193 14.7434 13.4675 14.6271 13.4675 14.5058Z" fill="#192434"/>
</svg>
