<svg width="24" height="24" viewBox="0 0 24 24" fill="none" xmlns="http://www.w3.org/2000/svg">
<g clip-path="url(#clip0)">
<path d="M23.7551 0H0.244873V23.5102H23.7551V0Z" fill="white" fill-opacity="0.01"/>
<path d="M8.56965 3.76453C8.92549 3.76453 9.25336 3.95752 9.42611 4.26865L10.6243 6.42709C10.7812 6.7097 10.7886 7.05153 10.644 7.34066L9.48968 9.64941C9.48968 9.64941 9.82421 11.3693 11.2242 12.7693C12.6243 14.1693 14.3384 14.4981 14.3384 14.4981L16.6468 13.3439C16.9361 13.1993 17.2782 13.2067 17.5609 13.3639L19.7254 14.5674C20.0363 14.7402 20.229 15.0679 20.229 15.4235V17.9085C20.229 19.174 19.0536 20.088 17.8546 19.6834C15.3919 18.8524 11.5692 17.2703 9.14624 14.8473C6.72332 12.4244 5.14114 8.60169 4.31019 6.13904C3.9056 4.93997 4.81961 3.76453 6.08506 3.76453H8.56965Z" stroke="#333333" stroke-width="1.46939" stroke-linejoin="round"/>
</g>
<defs>
<clipPath id="clip0">
<rect width="24" height="24" fill="white"/>
</clipPath>
</defs>
</svg>
