<svg width="16" height="16" viewBox="0 0 16 16" fill="none" xmlns="http://www.w3.org/2000/svg">
<path d="M10.0001 6.66672H8.00006V4.66672C8.00006 4.48991 7.92982 4.32034 7.8048 4.19532C7.67977 4.0703 7.5102 4.00006 7.33339 4.00006C7.15658 4.00006 6.98701 4.0703 6.86199 4.19532C6.73696 4.32034 6.66672 4.48991 6.66672 4.66672V6.66672H4.66672C4.48991 6.66672 4.32034 6.73696 4.19532 6.86199C4.0703 6.98701 4.00006 7.15658 4.00006 7.33339C4.00006 7.5102 4.0703 7.67977 4.19532 7.8048C4.32034 7.92982 4.48991 8.00006 4.66672 8.00006H6.66672V10.0001C6.66672 10.1769 6.73696 10.3464 6.86199 10.4715C6.98701 10.5965 7.15658 10.6667 7.33339 10.6667C7.5102 10.6667 7.67977 10.5965 7.8048 10.4715C7.92982 10.3464 8.00006 10.1769 8.00006 10.0001V8.00006H10.0001C10.1769 8.00006 10.3464 7.92982 10.4715 7.8048C10.5965 7.67977 10.6667 7.5102 10.6667 7.33339C10.6667 7.15658 10.5965 6.98701 10.4715 6.86199C10.3464 6.73696 10.1769 6.66672 10.0001 6.66672ZM14.4734 13.5267L12.0001 11.0734C12.9601 9.87633 13.4251 8.35692 13.2993 6.82759C13.1735 5.29826 12.4665 3.87525 11.3237 2.85115C10.181 1.82706 8.68926 1.27973 7.15534 1.32171C5.62142 1.36368 4.16187 1.99177 3.07682 3.07682C1.99177 4.16187 1.36368 5.62142 1.32171 7.15534C1.27973 8.68926 1.82706 10.181 2.85115 11.3237C3.87525 12.4665 5.29826 13.1735 6.82759 13.2993C8.35692 13.4251 9.87633 12.9601 11.0734 12.0001L13.5267 14.4534C13.5887 14.5159 13.6624 14.5655 13.7437 14.5993C13.8249 14.6332 13.9121 14.6506 14.0001 14.6506C14.0881 14.6506 14.1752 14.6332 14.2564 14.5993C14.3377 14.5655 14.4114 14.5159 14.4734 14.4534C14.5936 14.3291 14.6607 14.163 14.6607 13.9901C14.6607 13.8172 14.5936 13.651 14.4734 13.5267ZM7.33339 12.0001C6.41041 12.0001 5.50816 11.7264 4.74073 11.2136C3.9733 10.7008 3.37516 9.97197 3.02195 9.11925C2.66874 8.26653 2.57633 7.32821 2.75639 6.42297C2.93646 5.51773 3.38091 4.6862 4.03356 4.03356C4.6862 3.38091 5.51773 2.93646 6.42297 2.75639C7.32821 2.57633 8.26653 2.66874 9.11925 3.02195C9.97197 3.37516 10.7008 3.9733 11.2136 4.74073C11.7264 5.50816 12.0001 6.41041 12.0001 7.33339C12.0001 8.57107 11.5084 9.75805 10.6332 10.6332C9.75805 11.5084 8.57107 12.0001 7.33339 12.0001Z" fill="#192434"/>
</svg>
