<svg version="1.2" baseProfile="tiny-ps" xmlns="http://www.w3.org/2000/svg" viewBox="0 0 100 125" width="100" height="125">
	<title>noun_Taka_263916-svg</title>
	<style>
		tspan { white-space:pre }
		.shp0 { fill: #1d1c1a } 
	</style>
	<g id="Layer">
		<g id="Layer">
			<path id="Layer" fill-rule="evenodd" class="shp0" d="M62.74 45.22C62.74 45.91 62.18 46.47 61.49 46.47L46.53 46.47L46.53 46.65C46.53 47.75 46.53 48.84 46.52 49.93C46.52 51.4 46.51 52.87 46.51 54.35C46.52 56.1 46.83 58.55 48.23 60.26C49.85 62.23 52.92 62.32 55.09 61.58C56.84 60.97 57.98 59.1 58.32 57.14C57.37 57.84 56.15 58.17 54.97 58.01C53.52 57.81 52.25 57 51.49 55.81C50.78 54.7 50.6 53.4 50.98 52.16C51.3 51.12 52.03 50.25 53.04 49.72C54.19 49.13 55.6 49 56.82 49.39C58.72 50 60.21 51.72 60.72 53.89C61.59 57.64 59.87 62.58 55.9 63.94C54.84 64.3 53.66 64.51 52.47 64.51C50.19 64.51 47.87 63.75 46.3 61.85C44.43 59.57 44.02 56.52 44.01 54.36C44.01 52.88 44.02 51.4 44.02 49.92C44.03 48.83 44.03 47.74 44.03 46.65L44.03 46.47L40.51 46.47C39.82 46.47 39.26 45.91 39.26 45.22C39.26 44.53 39.82 43.97 40.51 43.97L44.03 43.97L44.03 41.74C44.03 41.73 44.04 41.73 44.04 41.72C44.02 41.63 43.99 41.55 43.99 41.46C43.99 39.55 42.43 37.99 40.51 37.99C39.82 37.99 39.26 37.43 39.26 36.74C39.26 36.05 39.82 35.49 40.51 35.49C43.81 35.49 46.49 38.17 46.49 41.46C46.49 41.47 46.48 41.48 46.48 41.49C46.5 41.57 46.53 41.65 46.53 41.74L46.53 43.97L61.49 43.97C62.18 43.97 62.74 44.53 62.74 45.22ZM57.42 52.72C57.04 52.27 56.57 51.94 56.06 51.77C55.83 51.7 55.59 51.67 55.34 51.67C54.95 51.67 54.55 51.76 54.2 51.94C53.91 52.09 53.53 52.38 53.37 52.89C53.21 53.42 53.29 53.98 53.6 54.46C53.97 55.04 54.59 55.43 55.31 55.53C56.02 55.63 56.8 55.31 57.24 54.73C57.54 54.34 57.8 53.67 57.42 52.72Z" />
			<path id="Layer" fill-rule="evenodd" class="shp0" d="M78.25 50C78.25 65.58 65.58 78.25 50 78.25C34.42 78.25 21.75 65.58 21.75 50C21.75 34.42 34.42 21.75 50 21.75C65.58 21.75 78.25 34.42 78.25 50ZM75.75 50C75.75 35.8 64.2 24.25 50 24.25C35.8 24.25 24.25 35.8 24.25 50C24.25 64.2 35.8 75.75 50 75.75C64.2 75.75 75.75 64.2 75.75 50Z" />
		</g>
	</g>
</svg>