<svg version="1.2" baseProfile="tiny-ps" xmlns="http://www.w3.org/2000/svg" viewBox="0 0 66 63" width="66" height="63">
	<title>noun_Taka_263916-svg-svg</title>
	<style>
		tspan { white-space:pre }
		.shp0 { fill: #1d1c1a } 
	</style>
	<g id="Layer">
		<g id="Layer">
			<path id="Layer" fill-rule="evenodd" class="shp0" d="M44.74 27.22C44.74 27.91 44.18 28.47 43.49 28.47L28.53 28.47L28.53 28.65C28.53 29.75 28.53 30.84 28.52 31.93C28.52 33.4 28.51 34.87 28.51 36.35C28.52 38.1 28.83 40.55 30.23 42.26C31.85 44.23 34.92 44.32 37.09 43.58C38.84 42.97 39.98 41.1 40.32 39.14C39.37 39.84 38.15 40.17 36.97 40.01C35.52 39.81 34.25 39 33.49 37.81C32.78 36.7 32.6 35.4 32.98 34.16C33.3 33.12 34.03 32.25 35.04 31.72C36.19 31.13 37.6 31 38.82 31.39C40.72 32 42.21 33.72 42.72 35.89C43.59 39.64 41.87 44.58 37.9 45.94C36.84 46.3 35.66 46.51 34.47 46.51C32.19 46.51 29.87 45.75 28.3 43.85C26.43 41.57 26.02 38.52 26.01 36.36C26.01 34.88 26.02 33.4 26.02 31.92C26.03 30.83 26.03 29.74 26.03 28.65L26.03 28.47L22.51 28.47C21.82 28.47 21.26 27.91 21.26 27.22C21.26 26.53 21.82 25.97 22.51 25.97L26.03 25.97L26.03 23.74C26.03 23.73 26.04 23.73 26.04 23.72C26.02 23.63 25.99 23.55 25.99 23.46C25.99 21.55 24.43 19.99 22.51 19.99C21.82 19.99 21.26 19.43 21.26 18.74C21.26 18.05 21.82 17.49 22.51 17.49C25.81 17.49 28.49 20.17 28.49 23.46C28.49 23.47 28.48 23.48 28.48 23.49C28.5 23.57 28.53 23.65 28.53 23.74L28.53 25.97L43.49 25.97C44.18 25.97 44.74 26.53 44.74 27.22ZM39.42 34.72C39.04 34.27 38.57 33.94 38.06 33.77C37.83 33.7 37.59 33.67 37.34 33.67C36.95 33.67 36.55 33.76 36.2 33.94C35.91 34.09 35.53 34.38 35.37 34.89C35.21 35.42 35.29 35.98 35.6 36.46C35.97 37.04 36.59 37.43 37.31 37.53C38.02 37.63 38.8 37.31 39.24 36.73C39.54 36.34 39.8 35.67 39.42 34.72Z" />
			<path id="Layer" fill-rule="evenodd" class="shp0" d="M60.25 32C60.25 47.58 47.58 60.25 32 60.25C16.42 60.25 3.75 47.58 3.75 32C3.75 16.42 16.42 3.75 32 3.75C47.58 3.75 60.25 16.42 60.25 32ZM57.75 32C57.75 17.8 46.2 6.25 32 6.25C17.8 6.25 6.25 17.8 6.25 32C6.25 46.2 17.8 57.75 32 57.75C46.2 57.75 57.75 46.2 57.75 32Z" />
		</g>
	</g>
</svg>