<svg width="25" height="27" viewBox="0 0 25 27" fill="none" xmlns="http://www.w3.org/2000/svg">
<path d="M23.356 13.3334C23.356 19.5935 18.2811 24.6684 12.021 24.6684C5.76085 24.6684 0.685996 19.5935 0.685996 13.3334C0.685996 7.07323 5.76085 1.99837 12.021 1.99837C18.2811 1.99837 23.356 7.07323 23.356 13.3334Z" fill="white" stroke="#03001F" stroke-width="1.33"/>
<path d="M9.373 7.016C10.077 7.016 10.6103 7.192 10.973 7.544C11.1863 7.74667 11.3517 8.02933 11.469 8.392C11.5863 8.75467 11.645 9.26667 11.645 9.928V10.968H16.893V12.728H11.645V16.376C11.645 16.6747 11.6877 16.8987 11.773 17.048C11.8583 17.1867 12.0503 17.256 12.349 17.256C12.669 17.256 12.9837 17.1867 13.293 17.048C13.6023 16.9093 13.853 16.728 14.045 16.504C14.2477 16.28 14.349 16.04 14.349 15.784C14.349 15.688 14.3063 15.5973 14.221 15.512C14.1357 15.4267 13.9703 15.384 13.725 15.384C13.533 15.384 13.3623 15.4 13.213 15.432L12.957 13.8C13.341 13.704 13.805 13.656 14.349 13.656C14.9783 13.656 15.485 13.8 15.869 14.088C16.253 14.376 16.445 14.824 16.445 15.432C16.445 16.008 16.3117 16.52 16.045 16.968C15.7783 17.416 15.4263 17.7893 14.989 18.088C14.5517 18.3867 14.0717 18.616 13.549 18.776C13.037 18.9253 12.5357 19 12.045 19C11.597 19 11.2183 18.9467 10.909 18.84C10.6103 18.7333 10.3703 18.5947 10.189 18.424C10.0717 18.3067 9.95966 18.1733 9.853 18.024C9.757 17.8747 9.677 17.6667 9.613 17.4C9.55966 17.1333 9.533 16.776 9.533 16.328V12.728H8.189V10.968H9.533V10.008C9.533 9.60267 9.47966 9.29867 9.373 9.096C9.26633 8.89333 9.021 8.792 8.637 8.792C8.349 8.792 8.045 8.856 7.725 8.984L7.117 7.448C7.533 7.29867 7.90633 7.192 8.237 7.128C8.56766 7.05333 8.94633 7.016 9.373 7.016Z" fill="#03001F"/>
</svg>
